<svg width="154" height="235" viewBox="0 0 154 235" fill="none" xmlns="http://www.w3.org/2000/svg">
<path d="M141.578 234.999H18.734C16.7586 234.971 14.8668 234.197 13.4381 232.832C12.0093 231.468 11.1493 229.614 11.0304 227.642L0.0142558 14.3C-0.0468184 13.351 0.0887875 12.3996 0.412581 11.5055C0.736375 10.6115 1.24137 9.79388 1.89592 9.10408C2.55046 8.41428 3.34044 7.86711 4.21634 7.49689C5.09224 7.12668 6.03516 6.94138 6.98602 6.95263H129.83C131.804 6.97823 133.696 7.74998 135.125 9.11286C136.554 10.4758 137.414 12.3288 137.533 14.3L148.53 227.642C148.591 228.59 148.456 229.54 148.134 230.433C147.811 231.326 147.308 232.144 146.656 232.834C146.003 233.524 145.216 234.072 144.342 234.445C143.468 234.817 142.527 235.006 141.578 234.999Z" fill="#35469C"/>
<path opacity="0.8" d="M141.578 234.999H18.734C16.7586 234.971 14.8668 234.197 13.4381 232.832C12.0093 231.468 11.1493 229.614 11.0304 227.642L0.0142558 14.3C-0.0468184 13.351 0.0887875 12.3996 0.412581 11.5055C0.736375 10.6115 1.24137 9.79388 1.89592 9.10408C2.55046 8.41428 3.34044 7.86711 4.21634 7.49689C5.09224 7.12668 6.03516 6.94138 6.98602 6.95263H129.83C131.804 6.97823 133.696 7.74998 135.125 9.11286C136.554 10.4758 137.414 12.3288 137.533 14.3L148.53 227.642C148.591 228.59 148.456 229.54 148.134 230.433C147.811 231.326 147.308 232.144 146.656 232.834C146.003 233.524 145.216 234.072 144.342 234.445C143.468 234.817 142.527 235.006 141.578 234.999Z" fill="white"/>
<path d="M117.706 0H104.119V0.962951H117.706V0Z" fill="#35469C"/>
<path d="M99.4101 0H94.4316V0.962951H99.4101V0Z" fill="#35469C"/>
<path d="M146.865 221.459H29.3845C27.4926 221.441 25.678 220.707 24.3058 219.404C22.9336 218.102 22.1058 216.328 21.989 214.439L11.4736 10.3899C11.4152 9.48174 11.545 8.57128 11.855 7.71565C12.1649 6.86002 12.6484 6.07768 13.2749 5.41767C13.9015 4.75766 14.6577 4.23422 15.496 3.8802C16.3344 3.52618 17.2369 3.3492 18.1468 3.36036H135.627C137.519 3.38125 139.332 4.11799 140.703 5.42227C142.073 6.72654 142.898 8.50152 143.013 10.3899L153.528 214.439C153.587 215.346 153.457 216.255 153.148 217.11C152.838 217.964 152.355 218.746 151.73 219.405C151.104 220.064 150.349 220.587 149.512 220.94C148.674 221.294 147.773 221.47 146.865 221.459Z" fill="#35469C"/>
<path d="M146.864 216.77H29.3838C28.6949 216.746 28.0386 216.47 27.5398 215.994C27.0409 215.519 26.7342 214.876 26.6779 214.189L16.1529 10.1494C16.1291 9.878 16.1631 9.60462 16.2527 9.34733C16.3424 9.09004 16.4856 8.85469 16.6729 8.65684C16.8607 8.45944 17.0883 8.30416 17.3407 8.20124C17.593 8.09832 17.8642 8.05012 18.1366 8.05981H135.617C136.304 8.08579 136.958 8.36276 137.455 8.83832C137.951 9.31388 138.257 9.95504 138.313 10.6405L148.886 214.68C148.909 214.951 148.875 215.223 148.786 215.479C148.696 215.736 148.554 215.97 148.367 216.167C148.181 216.365 147.955 216.52 147.704 216.624C147.453 216.728 147.183 216.778 146.912 216.77H146.864ZM18.1366 8.30055C17.8972 8.29281 17.6588 8.33505 17.4366 8.42458C17.2144 8.51411 17.0134 8.64896 16.8462 8.82054C16.6855 8.99838 16.5624 9.207 16.4847 9.43376C16.4069 9.66052 16.3759 9.90071 16.3936 10.1398L26.9091 214.18C26.9626 214.804 27.2428 215.388 27.6968 215.821C28.1509 216.254 28.7474 216.506 29.3742 216.529H146.854C147.092 216.539 147.33 216.497 147.551 216.407C147.772 216.318 147.971 216.182 148.135 216.009C148.3 215.834 148.425 215.626 148.503 215.398C148.581 215.171 148.61 214.929 148.588 214.69L138.082 10.6502C138.03 10.0261 137.752 9.44238 137.3 9.00945C136.847 8.57652 136.252 8.32434 135.626 8.30055H18.1366Z" fill="white"/>
<path opacity="0.3" d="M105.772 82.4248C119.134 68.7131 118.264 46.1938 103.829 32.1265C89.3931 18.0593 66.8589 17.7711 53.4968 31.4828C40.1348 45.1945 41.0049 67.7138 55.4403 81.7811C69.8757 95.8483 92.41 96.1365 105.772 82.4248Z" fill="white"/>
<path d="M108.443 56.9582C108.712 61.6903 107.761 66.4123 105.679 70.6706C103.426 75.2381 99.9283 79.076 95.589 81.7423C91.2497 84.4085 86.2455 85.7946 81.1528 85.7408C75.8751 85.6933 70.6997 84.2803 66.13 81.6394C61.5604 78.9986 57.7522 75.2197 55.0761 70.6706C52.582 66.5106 51.147 61.8021 50.8969 56.9582C50.6595 53.2434 51.1913 49.5195 52.4592 46.0197C53.7271 42.5199 55.7037 39.3194 58.2653 36.6186C60.8269 33.9178 63.9184 31.7748 67.3463 30.3236C70.7742 28.8725 74.4647 28.1445 78.1869 28.1852C85.9339 28.2659 93.3625 31.2792 98.9766 36.6182C104.591 41.9571 107.973 49.225 108.443 56.9582Z" fill="white"/>
<path d="M105.65 70.6713C103.397 75.2387 99.8991 79.0767 95.5598 81.7429C91.2205 84.4092 86.2163 85.7953 81.1236 85.7415C75.8459 85.694 70.6705 84.281 66.1008 81.6401C61.5312 78.9993 57.723 75.2204 55.0469 70.6713C62.3645 65.6176 71.0557 62.9289 79.9488 62.9677C89.0797 63.0021 98.0056 65.6775 105.65 70.6713Z" fill="#35469C"/>
<path d="M88.5548 56.2895C93.3689 51.3494 93.0537 43.2346 87.8508 38.1644C82.648 33.0943 74.5277 32.9888 69.7137 37.9288C64.8996 42.8688 65.2148 50.9837 70.4176 56.0539C75.6205 61.124 83.7408 61.2295 88.5548 56.2895Z" fill="#35469C"/>
<path d="M130.022 142.074H38.0314C37.2302 142.066 36.4618 141.754 35.8811 141.202C35.3004 140.65 34.9505 139.898 34.9018 139.098L34.2085 125.617C34.1846 125.233 34.2402 124.849 34.3716 124.488C34.503 124.127 34.7076 123.797 34.9724 123.519C35.2372 123.24 35.5566 123.02 35.9107 122.87C36.2647 122.721 36.6458 122.646 37.03 122.651H129.021C129.82 122.659 130.587 122.969 131.168 123.52C131.748 124.07 132.099 124.819 132.15 125.617L132.844 139.098C132.869 139.483 132.814 139.868 132.684 140.23C132.553 140.592 132.348 140.924 132.083 141.203C131.818 141.482 131.499 141.704 131.144 141.854C130.789 142.004 130.407 142.079 130.022 142.074Z" fill="white"/>
<path opacity="0.3" d="M101.856 115.208H63.4342C62.6297 115.202 61.8577 114.89 61.2747 114.335C60.6917 113.781 60.3414 113.026 60.295 112.222L60.1505 109.334C60.1253 108.949 60.1798 108.564 60.3106 108.202C60.4414 107.84 60.6457 107.508 60.9107 107.229C61.1757 106.95 61.4956 106.728 61.8503 106.578C62.205 106.428 62.5869 106.353 62.972 106.358H101.384C102.185 106.366 102.954 106.678 103.534 107.23C104.115 107.782 104.465 108.534 104.514 109.334L104.668 112.222C104.691 112.606 104.636 112.99 104.506 113.352C104.375 113.713 104.172 114.044 103.908 114.324C103.645 114.604 103.327 114.826 102.974 114.978C102.621 115.13 102.24 115.208 101.856 115.208Z" fill="black"/>
<path opacity="0.3" d="M116.147 206.89H58.5915C57.2286 206.874 55.9225 206.342 54.9349 205.403C53.9473 204.463 53.3513 203.186 53.2664 201.825L52.9294 195.181C52.8954 194.528 52.9947 193.875 53.2214 193.261C53.4481 192.648 53.7974 192.087 54.2479 191.613C54.6984 191.139 55.2408 190.762 55.8419 190.505C56.443 190.247 57.0902 190.115 57.7441 190.116H115.28C116.643 190.133 117.949 190.664 118.937 191.603C119.925 192.543 120.521 193.821 120.606 195.181L120.943 201.825C120.977 202.477 120.878 203.128 120.652 203.74C120.427 204.352 120.079 204.912 119.631 205.386C119.182 205.859 118.642 206.237 118.043 206.496C117.445 206.754 116.799 206.889 116.147 206.89Z" fill="black"/>
<path d="M131.708 174.68H39.7072C38.9066 174.669 38.1396 174.357 37.5593 173.805C36.9791 173.253 36.6285 172.503 36.5776 171.704L35.8843 158.223C35.8605 157.839 35.916 157.454 36.0473 157.093C36.1787 156.731 36.383 156.4 36.6477 156.121C36.9124 155.842 37.2317 155.62 37.5858 155.47C37.9398 155.32 38.3211 155.244 38.7057 155.247H130.696C131.498 155.255 132.266 155.567 132.847 156.119C133.427 156.671 133.777 157.423 133.826 158.223L134.529 171.704C134.551 172.088 134.495 172.472 134.363 172.833C134.231 173.194 134.027 173.524 133.762 173.802C133.498 174.081 133.179 174.303 132.826 174.454C132.472 174.605 132.092 174.681 131.708 174.68Z" fill="white"/>
<path d="M49.7026 132.357C49.7291 132.783 49.6676 133.209 49.5218 133.61C49.3761 134.011 49.1493 134.377 48.8556 134.686C48.5619 134.995 48.2076 135.24 47.8148 135.406C47.4221 135.572 46.9993 135.656 46.573 135.651C45.6873 135.64 44.8384 135.295 44.1971 134.684C43.5557 134.073 43.1695 133.242 43.116 132.357C43.0881 131.932 43.1484 131.506 43.293 131.106C43.4376 130.705 43.6635 130.338 43.9565 130.029C44.2494 129.72 44.6031 129.475 44.9954 129.309C45.3877 129.142 45.81 129.059 46.236 129.064C47.1227 129.075 47.9727 129.42 48.6156 130.03C49.2585 130.641 49.6468 131.472 49.7026 132.357Z" fill="#35469C"/>
<path d="M59.8424 132.357C59.8703 132.783 59.81 133.209 59.6654 133.609C59.5208 134.01 59.2949 134.377 59.0019 134.686C58.709 134.995 58.3553 135.24 57.963 135.406C57.5707 135.572 57.1484 135.656 56.7224 135.651C55.836 135.642 54.9859 135.298 54.344 134.686C53.7022 134.075 53.3167 133.242 53.2654 132.357C53.2375 131.932 53.2978 131.506 53.4424 131.106C53.5871 130.705 53.8129 130.338 54.1059 130.029C54.3988 129.72 54.7526 129.475 55.1448 129.309C55.5371 129.142 55.9595 129.059 56.3854 129.064C57.2718 129.072 58.1219 129.417 58.7638 130.029C59.4056 130.64 59.7911 131.472 59.8424 132.357Z" fill="#35469C"/>
<path d="M69.9246 132.357C69.9525 132.783 69.8922 133.209 69.7476 133.609C69.603 134.01 69.3771 134.377 69.0841 134.686C68.7912 134.995 68.4375 135.24 68.0452 135.406C67.653 135.572 67.2306 135.656 66.8046 135.651C65.9179 135.64 65.0679 135.295 64.425 134.684C63.7821 134.074 63.3938 133.242 63.338 132.357C63.3115 131.932 63.3731 131.505 63.5188 131.105C63.6645 130.704 63.8913 130.338 64.1851 130.029C64.4788 129.72 64.833 129.474 65.2258 129.308C65.6185 129.143 66.0413 129.059 66.4676 129.064C67.3533 129.075 68.2022 129.42 68.8436 130.031C69.4849 130.642 69.8711 131.473 69.9246 132.357Z" fill="#35469C"/>
<path d="M80.0838 132.357C80.1102 132.782 80.049 133.208 79.9038 133.608C79.7586 134.008 79.5327 134.374 79.24 134.683C78.9474 134.991 78.5942 135.237 78.2026 135.403C77.811 135.57 77.3894 135.654 76.9638 135.651C76.0771 135.64 75.2271 135.295 74.5842 134.684C73.9413 134.074 73.553 133.242 73.4972 132.357C73.4708 131.933 73.532 131.507 73.6772 131.107C73.8223 130.707 74.0483 130.341 74.3409 130.032C74.6336 129.723 74.9867 129.478 75.3783 129.311C75.7699 129.145 76.1916 129.061 76.6172 129.064C77.5039 129.074 78.3539 129.42 78.9968 130.03C79.6397 130.641 80.028 131.472 80.0838 132.357Z" fill="#35469C"/>
<path d="M51.4061 164.944C51.434 165.369 51.3737 165.795 51.2291 166.196C51.0844 166.596 50.8586 166.963 50.5656 167.272C50.2726 167.581 49.9189 167.827 49.5267 167.993C49.1344 168.159 48.712 168.242 48.2861 168.237C47.3994 168.227 46.5494 167.882 45.9065 167.271C45.2636 166.66 44.8753 165.829 44.8195 164.944C44.793 164.518 44.8545 164.092 45.0002 163.691C45.146 163.291 45.3728 162.924 45.6665 162.615C45.9602 162.306 46.3145 162.061 46.7072 161.895C47.1 161.729 47.5227 161.646 47.9491 161.651C48.8348 161.661 49.6837 162.007 50.325 162.618C50.9664 163.229 51.3526 164.06 51.4061 164.944Z" fill="#35469C"/>
<path d="M61.5268 164.944C61.5533 165.369 61.492 165.794 61.3468 166.194C61.2017 166.594 60.9757 166.96 60.6831 167.269C60.3904 167.578 60.0373 167.823 59.6457 167.99C59.2541 168.156 58.8324 168.241 58.4068 168.237C57.5201 168.227 56.6701 167.882 56.0272 167.271C55.3843 166.66 54.996 165.829 54.9402 164.944C54.9123 164.519 54.9726 164.093 55.1172 163.692C55.2619 163.291 55.4877 162.925 55.7807 162.616C56.0737 162.306 56.4274 162.061 56.8196 161.895C57.2119 161.729 57.6342 161.646 58.0602 161.651C58.9469 161.661 59.7969 162.006 60.4398 162.617C61.0827 163.228 61.471 164.059 61.5268 164.944Z" fill="#35469C"/>
<path d="M71.6489 164.944C71.6754 165.369 71.6139 165.796 71.4681 166.197C71.3224 166.597 71.0956 166.964 70.8019 167.273C70.5082 167.582 70.1539 167.827 69.7611 167.993C69.3684 168.159 68.9456 168.242 68.5193 168.237C67.6329 168.229 66.7827 167.884 66.1409 167.273C65.4991 166.661 65.1135 165.829 65.0623 164.944C65.0344 164.519 65.0947 164.093 65.2393 163.692C65.3839 163.291 65.6098 162.925 65.9028 162.616C66.1957 162.306 66.5494 162.061 66.9417 161.895C67.334 161.729 67.7563 161.646 68.1823 161.651C69.069 161.661 69.919 162.006 70.5619 162.617C71.2048 163.228 71.5931 164.059 71.6489 164.944Z" fill="#35469C"/>
<path d="M81.7596 164.944C81.7875 165.369 81.7272 165.795 81.5826 166.196C81.438 166.596 81.2121 166.963 80.9191 167.272C80.6262 167.581 80.2724 167.827 79.8802 167.993C79.4879 168.159 79.0656 168.242 78.6396 168.237C77.7529 168.227 76.9029 167.882 76.26 167.271C75.6171 166.66 75.2288 165.829 75.173 164.944C75.1465 164.518 75.208 164.092 75.3538 163.691C75.4995 163.291 75.7263 162.924 76.02 162.615C76.3137 162.306 76.668 162.061 77.0608 161.895C77.4535 161.729 77.8762 161.646 78.3026 161.651C79.189 161.659 80.0391 162.004 80.681 162.615C81.3228 163.226 81.7083 164.059 81.7596 164.944Z" fill="#35469C"/>
<path d="M91.8797 164.944C91.9076 165.369 91.8473 165.795 91.7027 166.196C91.5581 166.596 91.3322 166.963 91.0392 167.272C90.7463 167.581 90.3926 167.827 90.0003 167.993C89.608 168.159 89.1857 168.242 88.7597 168.237C87.873 168.227 87.023 167.882 86.3801 167.271C85.7372 166.66 85.3489 165.829 85.2931 164.944C85.2667 164.519 85.3279 164.093 85.4731 163.693C85.6182 163.293 85.8442 162.928 86.1368 162.619C86.4295 162.31 86.7826 162.064 87.1742 161.898C87.5658 161.731 87.9875 161.647 88.4131 161.65C89.2998 161.661 90.1498 162.006 90.7927 162.617C91.4356 163.228 91.8239 164.059 91.8797 164.944Z" fill="#35469C"/>
<path d="M102 164.944C102.027 165.369 101.965 165.796 101.82 166.197C101.674 166.597 101.447 166.964 101.153 167.273C100.86 167.582 100.505 167.827 100.113 167.993C99.7199 168.159 99.2972 168.242 98.8709 168.237C97.9851 168.227 97.1363 167.881 96.4949 167.27C95.8536 166.659 95.4673 165.828 95.4139 164.944C95.386 164.519 95.4462 164.093 95.5909 163.692C95.7355 163.291 95.9614 162.925 96.2543 162.616C96.5473 162.306 96.901 162.061 97.2933 161.895C97.6855 161.729 98.1079 161.646 98.5338 161.651C99.4205 161.661 100.271 162.006 100.913 162.617C101.556 163.228 101.945 164.059 102 164.944Z" fill="#35469C"/>
</svg>
