<svg width="267" height="171" viewBox="0 0 267 171" fill="none" xmlns="http://www.w3.org/2000/svg">
<path d="M266.176 0.859375H0V170.422H266.176V0.859375Z" fill="#F0F0F0"/>
<path d="M266.359 169.773C266.359 168.466 266.305 104.269 266.217 0.209842L266.359 0.372295L0.209905 0.419678L0.399437 0.209842C0.399437 60.2235 0.399437 117.563 0.399437 169.773L0.223443 169.576L266.393 169.773L0.223443 169.969H0.00683594V169.773C0.00683594 117.563 0.00683594 60.2235 0.00683594 0.209842V0H0.223443L266.373 0.0473826H266.522V0.209842C266.42 104.269 266.366 168.48 266.359 169.773Z" fill="#35469C"/>
<path d="M266.515 10.377C266.515 10.4785 206.853 10.5665 133.281 10.5665C59.7092 10.5665 0.00683594 10.4785 0.00683594 10.377C0.00683594 10.2754 59.655 10.1807 133.254 10.1807C206.853 10.1807 266.515 10.2687 266.515 10.377Z" fill="#35469C"/>
<path d="M8.8068 4.0953C8.8068 4.43534 8.70597 4.76776 8.51704 5.0505C8.32812 5.33324 8.0596 5.5536 7.74544 5.68374C7.43127 5.81387 7.08558 5.84792 6.75206 5.78158C6.41855 5.71524 6.11219 5.55149 5.87174 5.31104C5.63129 5.07059 5.46754 4.76423 5.4012 4.43072C5.33486 4.0972 5.36891 3.75151 5.49904 3.43734C5.62917 3.12318 5.84954 2.85466 6.13228 2.66574C6.41502 2.47681 6.74744 2.37598 7.08748 2.37598C7.54348 2.37598 7.98079 2.55712 8.30323 2.87955C8.62566 3.20199 8.8068 3.6393 8.8068 4.0953Z" fill="#35469C"/>
<path d="M14.0793 4.0953C14.0793 4.43534 13.9784 4.76776 13.7895 5.0505C13.6006 5.33324 13.3321 5.5536 13.0179 5.68374C12.7037 5.81387 12.358 5.84792 12.0245 5.78158C11.691 5.71524 11.3847 5.55149 11.1442 5.31104C10.9038 5.07059 10.74 4.76423 10.6737 4.43072C10.6073 4.0972 10.6414 3.75151 10.7715 3.43734C10.9016 3.12318 11.122 2.85466 11.4047 2.66574C11.6875 2.47681 12.0199 2.37598 12.3599 2.37598C12.5857 2.37598 12.8093 2.42045 13.0179 2.50685C13.2265 2.59325 13.416 2.7199 13.5757 2.87955C13.7353 3.03921 13.862 3.22874 13.9484 3.43734C14.0348 3.64594 14.0793 3.86951 14.0793 4.0953Z" fill="#35469C"/>
<path d="M19.3254 4.0953C19.3254 4.43534 19.2245 4.76776 19.0356 5.0505C18.8467 5.33324 18.5782 5.5536 18.264 5.68374C17.9498 5.81387 17.6041 5.84792 17.2706 5.78158C16.9371 5.71524 16.6307 5.55149 16.3903 5.31104C16.1498 5.07059 15.9861 4.76423 15.9198 4.43072C15.8534 4.0972 15.8875 3.75151 16.0176 3.43734C16.1477 3.12318 16.3681 2.85466 16.6508 2.66574C16.9336 2.47681 17.266 2.37598 17.606 2.37598C18.062 2.37598 18.4993 2.55712 18.8218 2.87955C19.1442 3.20199 19.3254 3.6393 19.3254 4.0953V4.0953Z" fill="#35469C"/>
<path d="M72.746 101.738H17.8564V154.847H72.746V101.738Z" fill="#35469C"/>
<g opacity="0.3">
<path opacity="0.3" d="M22.1143 150.305L37.2971 122.972L49.7181 140.442L57.2655 131.162L68.4952 150.305H22.1143Z" fill="black"/>
</g>
<g opacity="0.3">
<path opacity="0.3" d="M55.0116 117.658C55.013 118.44 54.7823 119.205 54.3487 119.856C53.9151 120.507 53.2982 121.015 52.576 121.315C51.8538 121.615 51.0588 121.695 50.2915 121.543C49.5242 121.391 48.8192 121.015 48.2657 120.463C47.7122 119.91 47.335 119.206 47.1819 118.439C47.0288 117.672 47.1067 116.877 47.4057 116.154C47.7047 115.431 48.2114 114.813 48.8616 114.379C49.5119 113.944 50.2764 113.712 51.0585 113.712C52.1052 113.714 53.1087 114.13 53.8494 114.869C54.5902 115.609 55.008 116.612 55.0116 117.658Z" fill="black"/>
</g>
<g opacity="0.3">
<path opacity="0.3" d="M68.4953 150.447C68.4851 150.375 68.4851 150.303 68.4953 150.231C68.4953 150.075 68.4953 149.872 68.4953 149.615C68.4953 149.046 68.4953 148.261 68.4953 147.225C68.4953 145.12 68.4953 142.074 68.4344 138.202C68.4344 130.445 68.3667 119.398 68.3193 106.138L68.5494 106.361L22.1684 106.402L22.4257 106.144V118.071C22.4257 121.97 22.4257 125.795 22.4257 129.511C22.4257 136.957 22.4257 143.983 22.4257 150.447L22.2023 150.224L55.7358 150.339L65.2123 150.4H67.7236H68.4005H68.6307C68.5634 150.41 68.4949 150.41 68.4276 150.4H67.7981H65.3342L55.9253 150.461L22.2497 150.576H22.0195V150.346C22.0195 143.881 22.0195 136.848 22.0195 129.409C22.0195 125.693 22.0195 121.869 22.0195 117.97V106.144L22.2835 105.88L68.6645 105.914H68.8879V106.138C68.8405 119.459 68.7999 130.553 68.7728 138.344C68.7728 142.196 68.7254 145.222 68.7119 147.313C68.7119 148.322 68.7119 149.107 68.7119 149.662C68.7119 149.913 68.7119 150.102 68.7119 150.258C68.6449 150.327 68.5725 150.39 68.4953 150.447V150.447Z" fill="black"/>
</g>
<path d="M117.516 111.844H80.3613V113.712H117.516V111.844Z" fill="#35469C"/>
<path d="M130.432 119.858C130.432 119.966 119.27 120.054 105.508 120.054C91.747 120.054 80.585 119.966 80.585 119.858C80.585 119.75 91.7402 119.668 105.508 119.668C119.276 119.668 130.432 119.743 130.432 119.858Z" fill="#35469C"/>
<path d="M130.431 125.07C130.431 125.179 119.269 125.267 105.508 125.267C91.7467 125.267 80.5576 125.158 80.5576 125.07C80.5576 124.982 91.7129 124.881 105.481 124.881C119.249 124.881 130.431 124.969 130.431 125.07Z" fill="#35469C"/>
<path d="M130.432 130.282C130.432 130.391 119.27 130.472 105.508 130.472C91.747 130.472 80.585 130.391 80.585 130.282C80.585 130.174 91.7402 130.093 105.508 130.093C119.276 130.093 130.432 130.174 130.432 130.282Z" fill="#35469C"/>
<path d="M130.432 135.495C130.432 135.596 119.27 135.684 105.508 135.684C91.747 135.684 80.585 135.596 80.585 135.495C80.585 135.393 91.7402 135.305 105.508 135.305C119.276 135.305 130.432 135.386 130.432 135.495Z" fill="#35469C"/>
<path d="M130.431 140.727C130.431 140.829 119.269 140.917 105.508 140.917C91.7467 140.917 80.5576 140.808 80.5576 140.727C80.5576 140.646 91.7129 140.531 105.481 140.531C119.249 140.531 130.431 140.598 130.431 140.727Z" fill="#35469C"/>
<path d="M106.185 145.465C106.185 145.567 100.452 145.655 93.3848 145.655C86.318 145.655 80.5576 145.594 80.5576 145.465C80.5576 145.337 86.2909 145.269 93.3577 145.269C100.425 145.269 106.185 145.384 106.185 145.465Z" fill="#35469C"/>
<path d="M237.537 108.696H200.382V110.565H237.537V108.696Z" fill="#35469C"/>
<path d="M250.458 116.718C250.458 116.826 239.296 116.907 225.535 116.907C211.773 116.907 200.611 116.826 200.611 116.718C200.611 116.61 211.767 116.528 225.535 116.528C239.303 116.528 250.458 116.61 250.458 116.718Z" fill="#35469C"/>
<path d="M250.458 121.93C250.458 122.038 239.296 122.119 225.535 122.119C211.773 122.119 200.611 122.038 200.611 121.93C200.611 121.821 211.767 121.74 225.535 121.74C239.303 121.74 250.458 121.821 250.458 121.93Z" fill="#35469C"/>
<path d="M250.458 127.142C250.458 127.243 239.296 127.331 225.535 127.331C211.773 127.331 200.611 127.243 200.611 127.142C200.611 127.04 211.767 126.945 225.535 126.945C239.303 126.945 250.458 127.033 250.458 127.142Z" fill="#35469C"/>
<path d="M250.458 132.354C250.458 132.455 239.296 132.543 225.535 132.543C211.773 132.543 200.611 132.455 200.611 132.354C200.611 132.252 211.767 132.157 225.535 132.157C239.303 132.157 250.458 132.245 250.458 132.354Z" fill="#35469C"/>
<path d="M250.458 137.559C250.458 137.667 239.296 137.755 225.535 137.755C211.773 137.755 200.611 137.667 200.611 137.559C200.611 137.45 211.767 137.369 225.535 137.369C239.303 137.369 250.458 137.457 250.458 137.559Z" fill="#35469C"/>
<path d="M226.206 142.352C226.206 142.453 220.472 142.541 213.406 142.541C206.339 142.541 200.605 142.453 200.605 142.352C200.605 142.25 206.339 142.155 213.406 142.155C220.472 142.155 226.206 142.243 226.206 142.352Z" fill="#35469C"/>
<path d="M192.706 156.641C193.301 156.456 193.927 156.391 194.547 156.451C194.161 156.837 194.439 156.56 194.351 156.641V156.296V155.95C194.351 155.729 194.364 155.533 194.392 155.361C194.425 155.03 194.473 154.827 194.527 154.827C194.581 154.827 194.628 155.03 194.662 155.361C194.662 155.533 194.676 155.729 194.703 155.95V156.627L194.513 156.824C193.905 156.887 193.29 156.825 192.706 156.641V156.641Z" fill="#35469C"/>
<path d="M184.8 156.641C186.101 156.388 187.438 156.388 188.739 156.641C187.439 156.902 186.1 156.902 184.8 156.641V156.641Z" fill="#35469C"/>
<path d="M176.947 156.641C178.248 156.388 179.586 156.388 180.887 156.641C179.587 156.902 178.247 156.902 176.947 156.641V156.641Z" fill="#35469C"/>
<path d="M169.068 156.641C170.369 156.388 171.707 156.388 173.008 156.641C171.708 156.902 170.369 156.902 169.068 156.641Z" fill="#35469C"/>
<path d="M161.189 156.641C162.49 156.388 163.828 156.388 165.129 156.641C163.829 156.902 162.49 156.902 161.189 156.641V156.641Z" fill="#35469C"/>
<path d="M153.31 156.641C154.611 156.388 155.948 156.388 157.249 156.641C155.949 156.902 154.61 156.902 153.31 156.641V156.641Z" fill="#35469C"/>
<path d="M145.432 156.641C146.733 156.388 148.07 156.388 149.371 156.641C148.071 156.902 146.732 156.902 145.432 156.641Z" fill="#35469C"/>
<path d="M139.65 154.807C139.843 155.398 139.91 156.023 139.847 156.641L139.65 156.452H140.368L140.957 156.492C141.289 156.533 141.492 156.58 141.492 156.627C141.492 156.675 141.289 156.729 140.957 156.77L140.368 156.81H139.65C139.569 156.722 139.847 157 139.461 156.614C139.405 156.005 139.469 155.391 139.65 154.807Z" fill="#35469C"/>
<path d="M139.65 147.198C139.912 148.453 139.912 149.748 139.65 151.002C139.398 149.747 139.398 148.454 139.65 147.198V147.198Z" fill="#35469C"/>
<path d="M139.65 139.597C139.912 140.851 139.912 142.146 139.65 143.401C139.398 142.145 139.398 140.852 139.65 139.597V139.597Z" fill="#35469C"/>
<path d="M139.651 131.995C139.912 133.247 139.912 134.54 139.651 135.792C139.466 135.176 139.402 134.53 139.461 133.89C139.401 133.252 139.466 132.608 139.651 131.995Z" fill="#35469C"/>
<path d="M139.65 124.386C139.912 125.641 139.912 126.936 139.65 128.19C139.398 126.935 139.398 125.642 139.65 124.386V124.386Z" fill="#35469C"/>
<path d="M139.651 116.785C139.912 118.037 139.912 119.33 139.651 120.583C139.466 119.969 139.401 119.325 139.461 118.687C139.402 118.047 139.466 117.401 139.651 116.785V116.785Z" fill="#35469C"/>
<path d="M139.65 109.177C139.912 110.431 139.912 111.726 139.65 112.981C139.398 111.725 139.398 110.432 139.65 109.177V109.177Z" fill="#35469C"/>
<path d="M141.478 103.538C140.883 103.726 140.257 103.791 139.637 103.728L139.833 103.538V103.89V104.235C139.833 104.452 139.833 104.655 139.792 104.818C139.758 105.149 139.711 105.359 139.657 105.359C139.603 105.359 139.555 105.149 139.522 104.818C139.522 104.655 139.522 104.452 139.481 104.235C139.44 104.019 139.481 103.998 139.481 103.89V103.538L139.67 103.349C140.28 103.29 140.894 103.354 141.478 103.538V103.538Z" fill="#35469C"/>
<path d="M149.371 103.538C148.07 103.791 146.733 103.791 145.432 103.538C146.733 103.285 148.07 103.285 149.371 103.538V103.538Z" fill="#35469C"/>
<path d="M157.249 103.538C155.948 103.791 154.611 103.791 153.31 103.538C154.611 103.285 155.948 103.285 157.249 103.538V103.538Z" fill="#35469C"/>
<path d="M165.129 103.538C163.828 103.791 162.49 103.791 161.189 103.538C162.49 103.285 163.828 103.285 165.129 103.538V103.538Z" fill="#35469C"/>
<path d="M173.008 103.538C171.707 103.791 170.369 103.791 169.068 103.538C170.369 103.285 171.707 103.285 173.008 103.538V103.538Z" fill="#35469C"/>
<path d="M180.887 103.538C179.586 103.791 178.248 103.791 176.947 103.538C178.248 103.285 179.586 103.285 180.887 103.538V103.538Z" fill="#35469C"/>
<path d="M188.767 103.538C187.466 103.791 186.128 103.791 184.827 103.538C186.128 103.285 187.466 103.285 188.767 103.538V103.538Z" fill="#35469C"/>
<path d="M194.547 105.38C194.355 104.786 194.288 104.159 194.351 103.538L194.547 103.728H194.175H193.83C193.606 103.728 193.41 103.728 193.241 103.687C192.909 103.653 192.706 103.606 192.706 103.552C192.706 103.498 192.909 103.45 193.241 103.417C193.412 103.417 193.609 103.403 193.83 103.376H194.175H194.547L194.737 103.566C194.792 104.177 194.727 104.793 194.547 105.38V105.38Z" fill="#35469C"/>
<path d="M194.547 112.974C194.285 111.72 194.285 110.424 194.547 109.17C194.8 110.425 194.8 111.719 194.547 112.974V112.974Z" fill="#35469C"/>
<path d="M194.547 120.583C194.285 119.33 194.285 118.037 194.547 116.785C194.731 117.401 194.796 118.047 194.736 118.687C194.796 119.325 194.732 119.969 194.547 120.583V120.583Z" fill="#35469C"/>
<path d="M194.547 128.19C194.285 126.936 194.285 125.641 194.547 124.386C194.8 125.642 194.8 126.935 194.547 128.19Z" fill="#35469C"/>
<path d="M194.547 135.792C194.285 134.54 194.285 133.247 194.547 131.995C194.732 132.608 194.796 133.252 194.736 133.89C194.796 134.53 194.731 135.176 194.547 135.792V135.792Z" fill="#35469C"/>
<path d="M194.547 143.435C194.285 142.18 194.285 140.885 194.547 139.63C194.8 140.886 194.8 142.179 194.547 143.435Z" fill="#35469C"/>
<path d="M194.547 151.002C194.285 149.748 194.285 148.453 194.547 147.198C194.8 148.454 194.8 149.747 194.547 151.002V151.002Z" fill="#35469C"/>
<path d="M177.699 52.974C177.699 52.974 177.699 52.8318 177.699 52.5746C177.699 52.3174 177.699 51.8977 177.699 51.451C177.699 50.4559 177.699 49.0209 177.665 47.1865C177.665 43.4974 177.617 38.2041 177.59 31.7397L177.726 31.8751L143.245 31.9157C143.204 31.9496 143.576 31.584 143.414 31.7397V42.719C143.414 46.2727 143.414 49.6978 143.414 52.9604L143.245 52.798L168.033 52.8792L175.16 52.9266H177.062H177.557C177.615 52.9208 177.674 52.9208 177.733 52.9266H177.103H175.228L168.141 52.974L143.245 53.0552H143.082V52.886C143.082 49.6233 143.082 46.1982 143.082 42.6445V37.2294C143.082 36.3156 143.082 35.3882 143.082 34.4608V31.7465C142.926 31.9022 143.299 31.5299 143.265 31.5705L177.746 31.6043H177.888V31.7465C177.854 38.2515 177.827 43.5651 177.814 47.2813C177.814 49.1021 177.814 50.5236 177.78 51.5119C177.78 51.9857 177.78 52.3512 177.78 52.6152C177.78 52.8792 177.699 52.974 177.699 52.974Z" fill="#35469C"/>
<path d="M160.668 40.5933L163.498 42.1163L160.783 43.9034L158.062 45.6904L157.954 42.3803L157.839 39.0703L160.668 40.5933Z" fill="#35469C"/>
<path d="M175.208 50.8486C175.208 50.9502 168.602 51.0246 160.459 51.0246C152.315 51.0246 145.702 50.9502 145.702 50.8486C145.702 50.7471 152.309 50.6997 160.431 50.6997C168.554 50.6997 175.208 50.7539 175.208 50.8486Z" fill="#35469C"/>
<path d="M145.844 51.2207C146.05 51.2207 146.216 51.054 146.216 50.8484C146.216 50.6428 146.05 50.4761 145.844 50.4761C145.638 50.4761 145.472 50.6428 145.472 50.8484C145.472 51.054 145.638 51.2207 145.844 51.2207Z" fill="#35469C"/>
<path d="M222.604 34.2236H185.449V36.0919H222.604V34.2236Z" fill="#35469C"/>
<path d="M235.52 42.2451C235.52 42.3467 224.364 42.4347 210.603 42.4347C196.842 42.4347 185.68 42.3467 185.68 42.2451C185.68 42.1436 196.835 42.0488 210.603 42.0488C224.371 42.0488 235.52 42.1368 235.52 42.2451Z" fill="#35469C"/>
<path d="M235.52 47.4503C235.52 47.5586 224.364 47.6466 210.603 47.6466C196.842 47.6466 185.68 47.5586 185.68 47.4503C185.68 47.342 196.835 47.2607 210.603 47.2607C224.371 47.2607 235.52 47.3487 235.52 47.4503Z" fill="#35469C"/>
<path d="M177.699 84.1589C177.699 84.1589 177.699 84.0235 177.699 83.7663C177.699 83.509 177.699 83.1232 177.699 82.6426C177.699 81.6476 177.699 80.2125 177.665 78.3782C177.665 74.6891 177.617 69.3957 177.59 62.9314L177.726 63.0667L143.245 63.1074C143.204 63.1074 143.576 62.7689 143.414 62.9314V73.9174C143.414 77.4711 143.414 80.8962 143.414 84.1589L143.245 83.9964L168.033 84.0776L175.16 84.125H177.062H177.557H177.733C177.733 84.125 177.685 84.125 177.577 84.125H177.103H175.228L168.141 84.1724L143.245 84.2469H143.082V84.0776C143.082 80.815 143.082 77.3899 143.082 73.8362V68.421C143.082 67.5004 143.082 66.5798 143.082 65.6525V62.8637C142.926 63.0194 143.299 62.6471 143.265 62.6877L177.746 62.7215H177.888V62.8637C177.854 69.3687 177.827 74.6823 177.814 78.3917C177.814 80.2126 177.814 81.6408 177.78 82.6291C177.78 83.1029 177.78 83.4617 177.78 83.7256C177.762 83.8716 177.735 84.0163 177.699 84.1589V84.1589Z" fill="#35469C"/>
<path d="M160.668 71.7784L163.498 73.3014L160.783 75.0952L158.062 76.8822L157.954 73.5722L157.839 70.2554L160.668 71.7784Z" fill="#35469C"/>
<path d="M175.208 82.04C175.208 82.1348 168.602 82.216 160.459 82.216C152.315 82.216 145.702 82.1348 145.702 82.04C145.702 81.9452 152.309 81.8369 160.431 81.8369C168.554 81.8369 175.208 81.9452 175.208 82.04Z" fill="#35469C"/>
<path d="M145.844 82.4121C146.05 82.4121 146.216 82.2454 146.216 82.0398C146.216 81.8342 146.05 81.6675 145.844 81.6675C145.638 81.6675 145.472 81.8342 145.472 82.0398C145.472 82.2454 145.638 82.4121 145.844 82.4121Z" fill="#35469C"/>
<path d="M222.604 65.415H185.449V67.2833H222.604V65.415Z" fill="#35469C"/>
<path d="M235.52 73.4298C235.52 73.5381 224.364 73.6261 210.603 73.6261C196.842 73.6261 185.68 73.5381 185.68 73.4298C185.68 73.3215 196.835 73.2402 210.603 73.2402C224.371 73.2402 235.52 73.3282 235.52 73.4298Z" fill="#35469C"/>
<path d="M235.52 78.6417C235.52 78.75 224.364 78.838 210.603 78.838C196.842 78.838 185.68 78.75 185.68 78.6417C185.68 78.5334 196.835 78.4521 210.603 78.4521C224.371 78.4521 235.52 78.5401 235.52 78.6417Z" fill="#35469C"/>
<path d="M125.077 91.6382C125.624 91.4666 126.199 91.4068 126.769 91.4622L126.593 91.6382V91.3133V90.9951C126.593 90.7921 126.593 90.6093 126.627 90.4536C126.627 90.149 126.702 89.9595 126.756 89.9595C126.81 89.9595 126.844 90.149 126.878 90.4536C126.878 90.6093 126.878 90.7921 126.918 90.9951V91.672L126.742 91.848C126.179 91.8926 125.612 91.8212 125.077 91.6382Z" fill="#E0E0E0"/>
<path d="M118.321 91.6382C119.437 91.4025 120.59 91.4025 121.706 91.6382C120.59 91.8738 119.437 91.8738 118.321 91.6382Z" fill="#E0E0E0"/>
<path d="M111.573 91.6384C112.689 91.4018 113.842 91.4018 114.958 91.6384C113.842 91.875 112.689 91.875 111.573 91.6384V91.6384Z" fill="#E0E0E0"/>
<path d="M104.817 91.6382C105.933 91.4025 107.086 91.4025 108.202 91.6382C107.086 91.8738 105.933 91.8738 104.817 91.6382Z" fill="#E0E0E0"/>
<path d="M98.0693 91.6381C98.6135 91.4662 99.1869 91.4063 99.7548 91.4621C100.325 91.4067 100.9 91.4666 101.447 91.6381C100.901 91.8134 100.325 91.8734 99.7548 91.8141C99.1869 91.8746 98.6125 91.8147 98.0693 91.6381V91.6381Z" fill="#E0E0E0"/>
<path d="M91.3135 91.6382C92.4293 91.4025 93.5821 91.4025 94.698 91.6382C93.5821 91.8738 92.4293 91.8738 91.3135 91.6382Z" fill="#E0E0E0"/>
<path d="M84.5645 91.6382C85.6803 91.4025 86.8331 91.4025 87.9489 91.6382C86.8331 91.8738 85.6803 91.8738 84.5645 91.6382Z" fill="#E0E0E0"/>
<path d="M77.8096 91.6381C78.3561 91.4666 78.9316 91.4067 79.5018 91.4621C80.0698 91.4063 80.6431 91.4662 81.1873 91.6381C80.6441 91.8147 80.0698 91.8746 79.5018 91.8141C78.9316 91.8734 78.3554 91.8134 77.8096 91.6381Z" fill="#E0E0E0"/>
<path d="M71.0811 91.6382C72.1969 91.4025 73.3497 91.4025 74.4655 91.6382C73.3497 91.8738 72.1969 91.8738 71.0811 91.6382Z" fill="#E0E0E0"/>
<path d="M64.3115 91.6384C65.4273 91.4018 66.5803 91.4018 67.696 91.6384C66.5803 91.875 65.4273 91.875 64.3115 91.6384V91.6384Z" fill="#E0E0E0"/>
<path d="M57.543 91.6382C58.6588 91.4025 59.8116 91.4025 60.9275 91.6382C59.8116 91.8738 58.6588 91.8738 57.543 91.6382Z" fill="#E0E0E0"/>
<path d="M50.8076 91.6384C51.9234 91.4018 53.0763 91.4018 54.1921 91.6384C53.0763 91.875 51.9234 91.875 50.8076 91.6384V91.6384Z" fill="#E0E0E0"/>
<path d="M44.0518 91.6382C45.1676 91.4025 46.3204 91.4025 47.4362 91.6382C46.3204 91.8738 45.1676 91.8738 44.0518 91.6382Z" fill="#E0E0E0"/>
<path d="M37.3037 91.6381C37.8479 91.4662 38.4212 91.4063 38.9892 91.4621C39.5571 91.4063 40.1305 91.4662 40.6747 91.6381C40.1315 91.8147 39.5571 91.8746 38.9892 91.8141C38.4212 91.8746 37.8469 91.8147 37.3037 91.6381V91.6381Z" fill="#E0E0E0"/>
<path d="M30.5479 91.6384C31.0944 91.4668 31.6699 91.407 32.2401 91.4624C32.808 91.4074 33.3812 91.4672 33.9256 91.6384C33.382 91.8134 32.808 91.8733 32.2401 91.8144C31.6699 91.8736 31.0936 91.8137 30.5479 91.6384V91.6384Z" fill="#E0E0E0"/>
<path d="M23.7998 91.6381C24.344 91.4662 24.9173 91.4063 25.4853 91.4621C26.0555 91.4067 26.6309 91.4666 27.1775 91.6381C26.6317 91.8134 26.0555 91.8734 25.4853 91.8141C24.9173 91.8746 24.343 91.8147 23.7998 91.6381V91.6381Z" fill="#E0E0E0"/>
<path d="M18.7295 89.9595C18.901 90.506 18.9609 91.0815 18.9055 91.6517L18.7295 91.4757H19.4064C19.6094 91.4757 19.7922 91.4757 19.9479 91.5163C20.2525 91.5163 20.442 91.5908 20.442 91.6382C20.442 91.6856 20.2525 91.7329 19.9479 91.7668L19.4064 91.8006H19.0882H18.7498L18.5738 91.6246C18.5154 91.0648 18.5684 90.4988 18.7295 89.9595V89.9595Z" fill="#E0E0E0"/>
<path d="M18.7297 83.2993C18.9644 84.3947 18.9644 85.5275 18.7297 86.6229C18.495 85.5275 18.495 84.3947 18.7297 83.2993V83.2993Z" fill="#E0E0E0"/>
<path d="M18.7297 76.6587C18.9644 77.7541 18.9644 78.8868 18.7297 79.9822C18.495 78.8868 18.495 77.7541 18.7297 76.6587Z" fill="#E0E0E0"/>
<path d="M18.7297 70.0112C18.9644 71.1067 18.9644 72.2394 18.7297 73.3348C18.495 72.2394 18.495 71.1067 18.7297 70.0112V70.0112Z" fill="#E0E0E0"/>
<path d="M18.7297 63.3643C18.9644 64.4597 18.9644 65.5924 18.7297 66.6878C18.495 65.5924 18.495 64.4597 18.7297 63.3643V63.3643Z" fill="#E0E0E0"/>
<path d="M18.7297 56.7173C18.9644 57.8127 18.9644 58.9454 18.7297 60.0409C18.495 58.9454 18.495 57.8127 18.7297 56.7173Z" fill="#E0E0E0"/>
<path d="M18.7298 50.0767C18.9645 51.1698 18.9645 52.3003 18.7298 53.3935C18.495 52.3003 18.495 51.1698 18.7298 50.0767V50.0767Z" fill="#E0E0E0"/>
<path d="M18.7297 43.4297C18.9644 44.5251 18.9644 45.6578 18.7297 46.7533C18.495 45.6578 18.495 44.5251 18.7297 43.4297Z" fill="#E0E0E0"/>
<path d="M18.7297 36.7827C18.9644 37.8781 18.9644 39.0109 18.7297 40.1063C18.495 39.0109 18.495 37.8781 18.7297 36.7827V36.7827Z" fill="#E0E0E0"/>
<path d="M18.7297 30.1353C18.9644 31.2307 18.9644 32.3634 18.7297 33.4588C18.495 32.3634 18.495 31.2307 18.7297 30.1353Z" fill="#E0E0E0"/>
<path d="M20.4221 25.1193C19.8773 25.2991 19.3005 25.3614 18.7299 25.3021C19.0819 24.9433 18.8246 25.2005 18.9059 25.1261V25.4578C18.9059 25.5593 18.9059 25.6608 18.9059 25.7759C18.9059 25.891 18.9059 26.1617 18.8653 26.3106C18.8653 26.6152 18.7908 26.8048 18.7434 26.8048C18.696 26.8048 18.6486 26.6152 18.6216 26.3106C18.6216 26.1617 18.6216 25.979 18.581 25.7759V25.099C18.6622 25.0178 18.405 25.2682 18.7569 24.9162C19.32 24.8732 19.8859 24.9422 20.4221 25.1193V25.1193Z" fill="#E0E0E0"/>
<path d="M27.1775 25.1196C26.6327 25.2993 26.0559 25.3616 25.4853 25.3023C24.9168 25.3619 24.3423 25.2996 23.7998 25.1196C24.344 24.9477 24.9173 24.8878 25.4853 24.9436C26.0555 24.8882 26.6309 24.948 27.1775 25.1196V25.1196Z" fill="#E0E0E0"/>
<path d="M33.9256 25.1194C33.3829 25.2982 32.8085 25.3604 32.2401 25.3021C31.6694 25.3614 31.0927 25.2991 30.5479 25.1194C31.0944 24.9478 31.6699 24.888 32.2401 24.9434C32.808 24.8883 33.3812 24.9482 33.9256 25.1194Z" fill="#E0E0E0"/>
<path d="M40.6747 25.1196C40.1322 25.2996 39.5576 25.3619 38.9892 25.3023C38.4208 25.3619 37.8462 25.2996 37.3037 25.1196C37.8479 24.9477 38.4212 24.8878 38.9892 24.9436C39.5571 24.8878 40.1305 24.9477 40.6747 25.1196Z" fill="#E0E0E0"/>
<path d="M47.4304 25.1196C46.3155 25.3643 45.1608 25.3643 44.0459 25.1196C45.1618 24.884 46.3145 24.884 47.4304 25.1196Z" fill="#E0E0E0"/>
<path d="M54.1579 25.1199C53.0431 25.3655 51.8882 25.3655 50.7734 25.1199C51.8892 24.8832 53.0422 24.8832 54.1579 25.1199Z" fill="#E0E0E0"/>
<path d="M60.9275 25.1196C59.8126 25.3643 58.6579 25.3643 57.543 25.1196C58.6588 24.884 59.8116 24.884 60.9275 25.1196Z" fill="#E0E0E0"/>
<path d="M67.696 25.1199C66.5812 25.3655 65.4263 25.3655 64.3115 25.1199C65.4273 24.8832 66.5803 24.8832 67.696 25.1199Z" fill="#E0E0E0"/>
<path d="M74.4655 25.1196C73.3507 25.3643 72.1959 25.3643 71.0811 25.1196C72.1969 24.884 73.3497 24.884 74.4655 25.1196Z" fill="#E0E0E0"/>
<path d="M81.1873 25.1196C80.6448 25.2996 80.0702 25.3619 79.5018 25.3023C78.9312 25.3616 78.3544 25.2993 77.8096 25.1196C78.3561 24.948 78.9316 24.8882 79.5018 24.9436C80.0698 24.8878 80.6431 24.9477 81.1873 25.1196V25.1196Z" fill="#E0E0E0"/>
<path d="M87.9421 25.1196C86.8272 25.3643 85.6725 25.3643 84.5576 25.1196C85.6735 24.884 86.8262 24.884 87.9421 25.1196V25.1196Z" fill="#E0E0E0"/>
<path d="M94.6911 25.1196C93.5762 25.3643 92.4215 25.3643 91.3066 25.1196C92.4225 24.884 93.5753 24.884 94.6911 25.1196Z" fill="#E0E0E0"/>
<path d="M101.447 25.1196C100.902 25.2993 100.325 25.3616 99.7548 25.3023C99.1864 25.3619 98.6118 25.2996 98.0693 25.1196C98.6135 24.9477 99.1869 24.8878 99.7548 24.9436C100.325 24.8882 100.9 24.948 101.447 25.1196Z" fill="#E0E0E0"/>
<path d="M108.195 25.1196C107.08 25.3643 105.925 25.3643 104.811 25.1196C105.926 24.884 107.079 24.884 108.195 25.1196Z" fill="#E0E0E0"/>
<path d="M114.944 25.1199C113.829 25.3655 112.674 25.3655 111.56 25.1199C112.675 24.8832 113.828 24.8832 114.944 25.1199Z" fill="#E0E0E0"/>
<path d="M121.7 25.1196C120.585 25.3643 119.43 25.3643 118.315 25.1196C119.431 24.884 120.584 24.884 121.7 25.1196Z" fill="#E0E0E0"/>
<path d="M126.769 26.8117C126.593 26.2661 126.533 25.6896 126.593 25.1194C126.945 25.4714 126.688 25.221 126.769 25.3022H126.424H126.106H125.571C125.267 25.2684 125.077 25.2277 125.077 25.1736C125.077 25.1194 125.267 25.0856 125.571 25.0517L126.106 25.0111H126.783C126.857 25.0924 126.607 24.8351 126.959 25.1871C127.002 25.7358 126.937 26.2876 126.769 26.8117V26.8117Z" fill="#E0E0E0"/>
<path d="M126.769 33.4588C126.534 32.3634 126.534 31.2307 126.769 30.1353C127.003 31.2307 127.003 32.3634 126.769 33.4588Z" fill="#E0E0E0"/>
<path d="M126.769 40.1063C126.534 39.0109 126.534 37.8781 126.769 36.7827C127.003 37.8781 127.003 39.0109 126.769 40.1063Z" fill="#E0E0E0"/>
<path d="M126.769 46.7533C126.534 45.6578 126.534 44.5251 126.769 43.4297C127.003 44.5251 127.003 45.6578 126.769 46.7533Z" fill="#E0E0E0"/>
<path d="M126.769 53.4071C126.534 52.314 126.534 51.1835 126.769 50.0903C127.004 51.1835 127.004 52.314 126.769 53.4071V53.4071Z" fill="#E0E0E0"/>
<path d="M126.769 60.0409C126.534 58.9454 126.534 57.8127 126.769 56.7173C127.003 57.8127 127.003 58.9454 126.769 60.0409Z" fill="#E0E0E0"/>
<path d="M126.769 66.6878C126.534 65.5924 126.534 64.4597 126.769 63.3643C127.003 64.4597 127.003 65.5924 126.769 66.6878Z" fill="#E0E0E0"/>
<path d="M126.769 73.3348C126.534 72.2394 126.534 71.1067 126.769 70.0112C127.003 71.1067 127.003 72.2394 126.769 73.3348V73.3348Z" fill="#E0E0E0"/>
<path d="M126.769 79.9822C126.593 79.4458 126.533 78.8783 126.593 78.3171C126.533 77.7581 126.593 77.1927 126.769 76.6587C126.941 77.1934 127.001 77.7581 126.945 78.3171C127 78.8783 126.94 79.445 126.769 79.9822V79.9822Z" fill="#E0E0E0"/>
<path d="M126.769 86.6229C126.534 85.5275 126.534 84.3947 126.769 83.2993C127.003 84.3947 127.003 85.5275 126.769 86.6229Z" fill="#E0E0E0"/>
</svg>
